<mxfile host="app.diagrams.net" modified="2023-12-09T15:14:32.443Z" agent="Mozilla/5.0 (Windows NT 10.0; Win64; x64) AppleWebKit/537.36 (KHTML, like Gecko) Chrome/120.0.0.0 Safari/537.36" etag="RkUqiWKp3aT695pAX4P7" version="22.1.7" type="google">
  <diagram name="ページ1" id="En87qMGS9kpCGX0fbQGY">
    <mxGraphModel grid="1" page="1" gridSize="10" guides="1" tooltips="1" connect="1" arrows="1" fold="1" pageScale="1" pageWidth="827" pageHeight="1169" math="0" shadow="0">
      <root>
        <mxCell id="0" />
        <mxCell id="1" parent="0" />
        <mxCell id="6KyY3WqF3SOxH_TrF618-17" style="edgeStyle=orthogonalEdgeStyle;rounded=0;orthogonalLoop=1;jettySize=auto;html=1;exitX=0.5;exitY=1;exitDx=0;exitDy=0;entryX=0.5;entryY=0;entryDx=0;entryDy=0;" edge="1" parent="1" source="6KyY3WqF3SOxH_TrF618-1" target="6KyY3WqF3SOxH_TrF618-7">
          <mxGeometry relative="1" as="geometry" />
        </mxCell>
        <mxCell id="6KyY3WqF3SOxH_TrF618-1" value="ログイン&lt;br&gt;(開始)" style="rounded=0;whiteSpace=wrap;html=1;" vertex="1" parent="1">
          <mxGeometry x="354" y="60" width="120" height="60" as="geometry" />
        </mxCell>
        <mxCell id="6KyY3WqF3SOxH_TrF618-2" value="ログイン&lt;br&gt;(終了)" style="rounded=0;whiteSpace=wrap;html=1;" vertex="1" parent="1">
          <mxGeometry x="354" y="390" width="120" height="60" as="geometry" />
        </mxCell>
        <mxCell id="Y11K4m4ucPwcrXrCkiUQ-1" style="edgeStyle=orthogonalEdgeStyle;rounded=0;orthogonalLoop=1;jettySize=auto;html=1;exitX=0.5;exitY=1;exitDx=0;exitDy=0;entryX=0.5;entryY=0;entryDx=0;entryDy=0;" edge="1" parent="1" source="6KyY3WqF3SOxH_TrF618-7" target="6KyY3WqF3SOxH_TrF618-15">
          <mxGeometry relative="1" as="geometry" />
        </mxCell>
        <mxCell id="6KyY3WqF3SOxH_TrF618-7" value="アクセスに使用しているキーを空にする" style="rounded=1;whiteSpace=wrap;html=1;arcSize=50;" vertex="1" parent="1">
          <mxGeometry x="354" y="170" width="120" height="60" as="geometry" />
        </mxCell>
        <mxCell id="Y11K4m4ucPwcrXrCkiUQ-2" style="edgeStyle=orthogonalEdgeStyle;rounded=0;orthogonalLoop=1;jettySize=auto;html=1;exitX=0.5;exitY=1;exitDx=0;exitDy=0;entryX=0.5;entryY=0;entryDx=0;entryDy=0;" edge="1" parent="1" source="6KyY3WqF3SOxH_TrF618-15" target="6KyY3WqF3SOxH_TrF618-2">
          <mxGeometry relative="1" as="geometry" />
        </mxCell>
        <mxCell id="6KyY3WqF3SOxH_TrF618-15" value="イベント番号1を返す" style="rounded=1;whiteSpace=wrap;html=1;arcSize=50;" vertex="1" parent="1">
          <mxGeometry x="354" y="280" width="120" height="60" as="geometry" />
        </mxCell>
      </root>
    </mxGraphModel>
  </diagram>
</mxfile>
